<?xml version="1.0" encoding="UTF-8" standalone="no"?>
<svg
   viewBox="0 0 22 22"
   version="1.0"
   height="22"
   width="22"
   id="svg120"
   sodipodi:docname="battery.svg"
   inkscape:version="1.1.2 (0a00cf5339, 2022-02-04, custom)"
   xmlns:inkscape="http://www.inkscape.org/namespaces/inkscape"
   xmlns:sodipodi="http://sodipodi.sourceforge.net/DTD/sodipodi-0.dtd"
   xmlns="http://www.w3.org/2000/svg"
   xmlns:svg="http://www.w3.org/2000/svg"
   xmlns:rdf="http://www.w3.org/1999/02/22-rdf-syntax-ns#"
   xmlns:cc="http://creativecommons.org/ns#"
   xmlns:dc="http://purl.org/dc/elements/1.1/">
  <sodipodi:namedview
     id="namedview119"
     pagecolor="#ffffff"
     bordercolor="#666666"
     borderopacity="1.0"
     inkscape:pageshadow="2"
     inkscape:pageopacity="0.0"
     inkscape:pagecheckerboard="0"
     showgrid="true"
     inkscape:snap-bbox="true"
     inkscape:bbox-nodes="true"
     inkscape:snap-nodes="false"
     inkscape:snap-intersection-paths="true"
     inkscape:object-paths="true"
     inkscape:snap-smooth-nodes="true"
     inkscape:snap-bbox-edge-midpoints="true"
     inkscape:zoom="2.6818182"
     inkscape:cx="134.98305"
     inkscape:cy="39.898305"
     inkscape:window-width="1368"
     inkscape:window-height="692"
     inkscape:window-x="0"
     inkscape:window-y="0"
     inkscape:window-maximized="1"
     inkscape:current-layer="svg120">
    <inkscape:grid
       type="xygrid"
       id="grid936" />
  </sodipodi:namedview>
  <metadata
     id="metadata121">
    <rdf:RDF>
      <cc:Work
         rdf:about="">
        <dc:format>image/svg+xml</dc:format>
        <dc:type
           rdf:resource="http://purl.org/dc/dcmitype/StillImage" />
      </cc:Work>
    </rdf:RDF>
  </metadata>
  <defs
     id="defs5">
    <style
       type="text/css"
       id="current-color-scheme">.ColorScheme-Text { color:#363636; }</style>
  </defs>
  <g
     transform="translate(360,25)"
     id="Fill10">
    <g
       fill="#ff4d62"
       transform="translate(0,-24)"
       id="g1075">
      <path
         d="m 3,-34 c -2.216,0 -4,1.784 -4,4 v 6 c 0,2.216 1.784,4 4,4 h 18 c 2.216,0 4,-1.784 4,-4 v -6 c 0,-2.216 -1.784,-4 -4,-4 z m 0,2 h 18 c 1.108,0 2,0.892 2,2 v 6 c 0,1.108 -0.892,2 -2,2 H 3 c -1.108,0 -2,-0.892 -2,-2 v -6 c 0,-1.108 0.892,-2 2,-2 z"
         id="path1069" />
      <path
         d="m 26,-29 v 4 h 0.5 A 2.25,2.1237 0 0 0 28,-27.0013 2.25,2.1237 0 0 0 26.5,-29 Z"
         id="path1071" />
      <rect
         ry="1"
         height="8"
         width="2"
         y="-31"
         x="2"
         id="rect1073" />
    </g>
    <rect
       fill="none"
       height="32"
       width="32"
       y="-67"
       x="-3"
       id="rect1077" />
  </g>
  <g
     fill="currentColor"
     transform="translate(-154.45,-378.51)"
     class="ColorScheme-Text"
     id="Fill100">
    <rect
       opacity="0"
       ry="0"
       rx="0"
       height="32"
       width="32"
       y="336.51001"
       x="189.44"
       id="rect1022" />
    <rect
       stroke-width="0.8528"
       ry="1"
       rx="0"
       height="8"
       width="20"
       y="348.51001"
       x="194.45"
       id="rect1028" />
  </g>
  <g
     fill="currentColor"
     transform="translate(-114.45,-378.51)"
     class="ColorScheme-Text"
     id="Fill90">
    <rect
       opacity="0"
       ry="0"
       rx="0"
       height="32"
       width="32"
       y="336.51001"
       x="189.44"
       id="rect1042" />
    <rect
       stroke-width="0.849"
       ry="1"
       rx="0"
       height="8"
       width="18"
       y="348.51001"
       x="194.42999"
       id="rect1044" />
  </g>
  <g
     fill="currentColor"
     transform="translate(-79.45,-378.51)"
     class="ColorScheme-Text"
     id="Fill80">
    <rect
       opacity="0"
       ry="0"
       rx="0"
       height="32"
       width="32"
       y="336.51001"
       x="189.44"
       id="rect1048" />
    <rect
       stroke-width="0.8438"
       ry="1"
       rx="0"
       height="8"
       width="16"
       y="348.51001"
       x="194.42999"
       id="rect1050" />
  </g>
  <g
     fill="currentColor"
     transform="translate(-40.45,-378.51)"
     class="ColorScheme-Text"
     id="Fill70">
    <rect
       opacity="0"
       ry="0"
       rx="0"
       height="32"
       width="32"
       y="336.51001"
       x="189.44"
       id="rect1054" />
    <rect
       stroke-width="0.83726"
       ry="1"
       rx="0"
       height="8"
       width="14"
       y="348.51001"
       x="194.42999"
       id="rect1056" />
  </g>
  <g
     fill="currentColor"
     transform="translate(-4.45,-378.51)"
     class="ColorScheme-Text"
     id="Fill60">
    <rect
       opacity="0"
       ry="0"
       rx="0"
       height="32"
       width="32"
       y="336.51001"
       x="189.44"
       id="rect1060" />
    <rect
       stroke-width="0.82877"
       ry="1"
       rx="0"
       height="8"
       width="12"
       y="348.51001"
       x="194.42999"
       id="rect1062" />
  </g>
  <g
     fill="currentColor"
     transform="translate(30.55,-378.51)"
     class="ColorScheme-Text"
     id="Fill50">
    <rect
       opacity="0"
       ry="0"
       rx="0"
       height="32"
       width="32"
       y="336.51001"
       x="189.44"
       id="rect1066" />
    <rect
       stroke-width="0.81731"
       ry="1"
       rx="0"
       height="8"
       width="10"
       y="348.51001"
       x="194.42999"
       id="rect1068" />
  </g>
  <g
     fill="currentColor"
     transform="translate(70.55,-378.51)"
     class="ColorScheme-Text"
     id="Fill40">
    <rect
       opacity="0"
       ry="0"
       rx="0"
       height="32"
       width="32"
       y="336.51001"
       x="189.44"
       id="rect1072" />
    <rect
       stroke-width="0.801"
       ry="1"
       rx="0"
       height="8"
       width="8"
       y="348.51001"
       x="194.42999"
       id="rect1074" />
  </g>
  <g
     fill="currentColor"
     transform="translate(105.55,-378.51)"
     class="ColorScheme-Text"
     id="Fill30">
    <rect
       opacity="0"
       ry="0"
       rx="0"
       height="32"
       width="32"
       y="336.51001"
       x="189.44"
       id="rect1078" />
    <rect
       stroke-width="0.77589"
       ry="1"
       rx="0"
       height="8"
       width="6"
       y="348.51001"
       x="194.42999"
       id="rect1080" />
  </g>
  <g
     fill="currentColor"
     transform="translate(137.55,-378.51)"
     class="ColorScheme-Text"
     id="Fill20">
    <rect
       opacity="0"
       ry="0"
       rx="0"
       height="32"
       width="32"
       y="336.51001"
       x="189.44"
       id="rect1084" />
    <rect
       stroke-width="0.73212"
       ry="1"
       rx="0"
       height="8"
       width="4"
       y="348.51001"
       x="194.42999"
       id="rect1086" />
  </g>
  <g
     transform="translate(-69.54,-403.51)"
     id="AcAdapter">
    <g
       transform="translate(-228,47)"
       id="g1133">
      <rect
         opacity="0"
         ry="0"
         rx="0"
         height="32"
         width="32"
         y="314.51001"
         x="211.53999"
         id="rect1129" />
    </g>
    <g
       id="g1139">
      <path
         fill="#4caf50"
         d="m -3.4643,369.51 c -0.554,0 -1,0.446 -1,1 v 3 h -2 c 3.908e-4,3.3259 1.6723,6.1922 4,6.8574 v 4.1426 c 0,0.554 0.446,1 1,1 0.554,0 1,-0.446 1,-1 v -4.1426 c 2.3277,-0.66518 3.9996,-3.5315 4,-6.8574 h -2 v -3 c 0,-0.554 -0.446,-1 -1,-1 -0.554,0 -1,0.446 -1,1 v 3 h -2 v -3 c 0,-0.554 -0.446,-1 -1,-1 z"
         id="path1137" />
    </g>
  </g>
  <g
     transform="translate(-167.54,-433.51001)"
     id="22-22-AcAdapter">
    <g
       transform="translate(-128,-3)"
       id="g1153">
      <g
         transform="translate(50,8)"
         id="g1149">
        <rect
           opacity="0"
           ry="0"
           rx="0"
           height="22"
           width="22"
           y="428.51001"
           x="164.53999"
           id="rect1147" />
      </g>
    </g>
    <path
       fill="#4caf50"
       d="m -119.5,35 c -0.277,0 -0.5,0.223 -0.5,0.5 V 37 h -2 a 4.5,6 0 0 0 4,5.9609 V 45.5 c 0,0.277 0.223,0.5 0.5,0.5 0.277,0 0.5,-0.223 0.5,-0.5 V 42.9629 A 4.5,6 0 0 0 -113,37 h -2 v -1.5 c 0,-0.277 -0.223,-0.5 -0.5,-0.5 -0.277,0 -0.5,0.223 -0.5,0.5 V 37 h -3 v -1.5 c 0,-0.277 -0.223,-0.5 -0.5,-0.5 z"
       transform="translate(214.54,404.51)"
       id="path1155" />
  </g>
  <g
     fill="currentColor"
     transform="translate(-210.25,-401.51)"
     class="ColorScheme-Text"
     id="battery-ups">
    <g
       transform="translate(1,27)"
       id="g297">
      <path
         opacity="0.5"
         d="m -139,-36 c -2.216,0 -4,1.784 -4,4 v 6 c 0,2.216 1.784,4 4,4 h 18 c 2.216,0 4,-1.784 4,-4 v -6 c 0,-2.216 -1.784,-4 -4,-4 z m 0,1 h 11 l -7,7 h 5 l -2.5,5 h -6.5 c -1.662,0 -3,-1.338 -3,-3 v -6 c 0,-1.662 1.338,-3 3,-3 z m 11.5,0 h 6.5 c 1.662,0 3,1.338 3,3 v 6 c 0,1.662 -1.338,3 -3,3 h -11 l 7,-7 h -5 z m 11.5,4 v 4 a 2,2 0 0 0 2,-2 2,2 0 0 0 -2,-2 z"
         transform="translate(213.54,377.51)"
         id="path275" />
      <path
         d="m -139,-34 c -1.108,0 -2,0.892 -2,2 v 6 c 0,1.108 0.892,2 2,2 h 5.8828 l 1.5,-3 H -135 c -0.89064,-3.51e-4 -1.3366,-1.077 -0.70703,-1.707 l 5.293,-5.293 z m 12.117,0 -1.5,3 h 3.3828 c 0.89064,3.51e-4 1.3366,1.077 0.70703,1.707 l -5.293,5.293 h 8.5859 c 1.108,0 2,-0.892 2,-2 v -6 c 0,-1.108 -0.892,-2 -2,-2 z"
         transform="translate(213.54,377.51)"
         id="rect281" />
    </g>
    <rect
       opacity="0"
       ry="0"
       rx="0"
       height="32"
       width="32"
       y="359.51001"
       x="69.536003"
       id="rect1110" />
  </g>
  <g
     transform="translate(-220.54,-408.51001)"
     fill="currentColor"
     class="ColorScheme-Text"
     id="22-22-battery-ups">
    <path
       d="m -116,12 c -0.554,0 -1,0.446 -1,1 v 5 c 0,0.554 0.446,1 1,1 h 4.8106 l 0.6582,-1.4941 H -113 c -0.87296,5.7e-4 -1.3276,-1.0392 -0.73438,-1.6797 L -110.20508,12 Z m 9.2051,0 -0.66797,1.5059 h 2.4629 c 0.86964,8.8e-4 1.3239,1.0346 0.73633,1.6758 l -3.5137,3.8184 h 5.7773 c 0.554,0 1,-0.446 1,-1 v -5 c 0,-0.554 -0.446,-1 -1,-1 z"
       transform="translate(214.54,404.51)"
       id="rect1160" />
    <rect
       opacity="0"
       ry="0"
       rx="0"
       height="22"
       width="22"
       y="408.51001"
       x="95.536003"
       id="rect930" />
    <path
       opacity="0.5"
       d="m -116,10 c -1.662,0 -3,1.338 -3,3 v 5 c 0,1.662 1.338,3 3,3 h 14 c 1.662,0 3,-1.338 3,-3 v -5 c 0,-1.662 -1.338,-3 -3,-3 h -5 z m 0,1 h 8.0781 L -113,16.5059 h 4 L -110.5371,20 H -116 c -1.108,0 -2,-0.892 -2,-2 v -5 c 0,-1.108 0.89199,-2 2,-2 z m 8.5566,0 H -102 c 1.108,0 2,0.892 2,2 v 5 c 0,1.108 -0.89199,2 -2,2 h -8.0566 L -105,14.5059 h -4 z"
       transform="translate(214.54,404.51)"
       id="path965" />
    <path
       opacity="0.5"
       d="m 116.54,418.59 v 2.8262 a 1.5,1.5 0 0 0 1,-1.4141 1.5,1.5 0 0 0 -1,-1.4121 z"
       id="path1139" />
  </g>
  <g
     transform="translate(-166.53999,-470.5)"
     id="Unavailable">
    <path
       fill="none"
       d="m 118.54,428.5 h 32 v 32 h -32 z"
       id="rect4480" />
    <g
       id="g4580">
      <rect
         fill="#f44336"
         ry="6"
         rx="6"
         height="12"
         width="12"
         y="446.5"
         x="138.53999"
         id="rect4577" />
      <path
         d="m 147.36,450.38 -0.70699,-0.707 -2.1213,2.1213 -2.1213,-2.1213 -0.70711,0.70711 2.1214,2.1212 -2.1214,2.1214 0.70711,0.70711 2.1213,-2.1216 2.1213,2.1216 0.70711,-0.70711 -2.1214,-2.1214 z"
         id="rect4622-0"
         style="fill:#ffffff" />
    </g>
  </g>
  <g
     transform="translate(-300.54,-426.50001)"
     id="22-22-Unavailable">
    <path
       fill="none"
       d="m 258.54,426.5 h 22 v 22 h -22 z"
       id="rect4614" />
    <g
       id="g4631">
      <rect
         fill="#f44336"
         ry="4.5"
         rx="4.5"
         height="9"
         width="9"
         y="439.5"
         x="271.54001"
         id="rect4577-9-1" />
      <path
         d="m 277.89,442.77 -0.61861,-0.61862 -1.2375,1.2375 -1.2375,-1.2375 -0.61861,0.61862 1.2375,1.2375 -1.2375,1.2373 0.61861,0.61862 1.2375,-1.2373 1.2374,1.2374 0.61863,-0.61862 -1.2374,-1.2374 z"
         id="rect4622"
         style="fill:#ffffff" />
    </g>
  </g>
  <g
     transform="translate(-1,25)"
     id="Battery">
    <g
       fill="currentColor"
       class="ColorScheme-Text"
       transform="translate(0,-24)"
       id="g995">
      <path
         d="m 3,-34 c -2.216,0 -4,1.784 -4,4 v 6 c 0,2.216 1.784,4 4,4 h 18 c 2.216,0 4,-1.784 4,-4 v -6 c 0,-2.216 -1.784,-4 -4,-4 z m 0,2 h 18 c 1.108,0 2,0.892 2,2 v 6 c 0,1.108 -0.892,2 -2,2 H 3 c -1.108,0 -2,-0.892 -2,-2 v -6 c 0,-1.108 0.892,-2 2,-2 z"
         id="rect939" />
      <path
         d="m 26,-29 v 4 h 0.5 A 2.25,2.1237 0 0 0 28,-27.0013 2.25,2.1237 0 0 0 26.5,-29 Z"
         id="path944" />
    </g>
    <rect
       fill="none"
       height="32"
       width="32"
       y="-67"
       x="-3"
       id="rect997" />
  </g>
  <g
     transform="translate(39,-23.999999)"
     id="22-22-Fill100">
    <rect
       opacity="0"
       height="22"
       width="22"
       y="24"
       id="rect971"
       x="0" />
    <rect
       fill="currentColor"
       class="ColorScheme-Text"
       ry="1"
       height="6"
       width="12"
       y="32"
       x="3"
       id="rect969" />
  </g>
  <g
     transform="translate(66,-23.999999)"
     id="22-22-Fill90">
    <rect
       opacity="0"
       height="22"
       width="22"
       y="24"
       id="rect977"
       x="0" />
    <rect
       fill="currentColor"
       class="ColorScheme-Text"
       ry="1"
       height="6"
       width="11"
       y="32"
       x="3"
       id="rect979" />
  </g>
  <g
     transform="translate(95,-23.999999)"
     id="22-22-Fill80">
    <rect
       opacity="0"
       height="22"
       width="22"
       y="24"
       id="rect983"
       x="0" />
    <rect
       fill="currentColor"
       class="ColorScheme-Text"
       ry="1"
       height="6"
       width="10"
       y="32"
       x="3"
       id="rect985" />
  </g>
  <g
     transform="translate(123.5,-23.999999)"
     id="22-22-Fill70">
    <rect
       opacity="0"
       height="22"
       width="22"
       y="24"
       id="rect989"
       x="0" />
    <rect
       fill="currentColor"
       class="ColorScheme-Text"
       ry="1"
       height="6"
       width="9"
       y="32"
       x="3"
       id="rect991" />
  </g>
  <g
     transform="translate(155.5,-23.999999)"
     id="22-22-Fill60">
    <rect
       opacity="0"
       height="22"
       width="22"
       y="24"
       id="rect995"
       x="0" />
    <rect
       fill="currentColor"
       class="ColorScheme-Text"
       ry="1"
       height="6"
       width="8"
       y="32"
       x="3"
       id="rect998" />
  </g>
  <g
     transform="translate(190,-23.999999)"
     id="22-22-Fill50">
    <rect
       opacity="0"
       height="22"
       width="22"
       y="24"
       id="rect1002"
       x="0" />
    <rect
       fill="currentColor"
       class="ColorScheme-Text"
       ry="1"
       height="6"
       width="7"
       y="32"
       x="3"
       id="rect1004" />
  </g>
  <g
     transform="translate(219,-23.999999)"
     id="22-22-Fill40">
    <rect
       opacity="0"
       height="22"
       width="22"
       y="24"
       id="rect1008"
       x="0" />
    <rect
       fill="currentColor"
       class="ColorScheme-Text"
       ry="1"
       height="6"
       width="5"
       y="32"
       x="3"
       id="rect1011" />
  </g>
  <g
     transform="translate(249,-23.999999)"
     id="22-22-Fill30">
    <rect
       opacity="0"
       height="22"
       width="22"
       y="24"
       id="rect1015"
       x="0" />
    <rect
       fill="currentColor"
       class="ColorScheme-Text"
       ry="1"
       height="6"
       width="4"
       y="32"
       x="3"
       id="rect1017" />
  </g>
  <g
     transform="translate(279,-23.999999)"
     id="22-22-Fill20">
    <rect
       opacity="0"
       height="22"
       width="22"
       y="24"
       id="rect1021"
       x="0" />
    <rect
       fill="currentColor"
       class="ColorScheme-Text"
       ry="1"
       height="6"
       width="3"
       y="32"
       x="3"
       id="rect1024" />
  </g>
  <g
     transform="translate(402,25)"
     id="Fill0">
    <g
       fill="#ff4d62"
       transform="translate(0,-24)"
       id="g1087">
      <path
         d="m 3,-34 c -2.216,0 -4,1.784 -4,4 v 6 c 0,2.216 1.784,4 4,4 h 18 c 2.216,0 4,-1.784 4,-4 v -6 c 0,-2.216 -1.784,-4 -4,-4 z m 0,2 h 18 c 1.108,0 2,0.892 2,2 v 6 c 0,1.108 -0.892,2 -2,2 H 3 c -1.108,0 -2,-0.892 -2,-2 v -6 c 0,-1.108 0.892,-2 2,-2 z"
         id="path1081" />
      <path
         d="m 26,-29 v 4 h 0.5 A 2.25,2.1237 0 0 0 28,-27.0013 2.25,2.1237 0 0 0 26.5,-29 Z"
         id="path1083" />
    </g>
    <rect
       fill="none"
       height="32"
       width="32"
       y="-67"
       x="-3"
       id="rect1089" />
  </g>
  <g
     id="22-22-Battery">
    <rect
       fill="none"
       height="22"
       width="22"
       id="rect972"
       x="0"
       y="0" />
    <path
       fill="currentColor"
       class="ColorScheme-Text"
       d="m 20,9 v 4 h 0.5 A 1.5,2 0 0 0 22,11 1.5,2 0 0 0 20.5,9 Z"
       id="path963" />
    <path
       fill="currentColor"
       class="ColorScheme-Text"
       d="M 3.9766,5 C 1.7731,5 0,6.773 0,8.9766 v 4.0469 c 0,2.2035 1.773,3.9766 3.9766,3.9766 h 11.047 c 2.2035,0 3.9766,-1.773 3.9766,-3.9766 V 8.9766 C 19.0002,6.7731 17.2272,5 15.0236,5 Z m 0.023438,2 h 11 c 1.108,0 2,0.892 2,2 v 4 c 0,1.108 -0.892,2 -2,2 h -11 c -1.108,0 -2,-0.892 -2,-2 V 9 c 0,-1.108 0.892,-2 2,-2 z"
       id="rect942" />
  </g>
  <g
     transform="translate(-6,-16.999999)"
     id="22-22-Fill10">
    <rect
       fill="none"
       height="22"
       width="22"
       y="17"
       x="313"
       id="rect952" />
    <path
       fill="#ff4d62"
       d="m 333,26 v 4 h 0.5 a 1.5,2 0 0 0 1.5,-2 1.5,2 0 0 0 -1.5,-2 z"
       id="path954" />
    <path
       fill="#ff4d62"
       d="m 316.98,22 c -2.2035,0 -3.9766,1.773 -3.9766,3.9766 v 4.0469 c 0,2.2035 1.773,3.9766 3.9766,3.9766 h 11.047 c 2.2035,0 3.9766,-1.773 3.9766,-3.9766 V 25.9766 C 332.0036,23.7731 330.2306,22 328.027,22 Z m 0.0234,2 h 11 c 1.108,0 2,0.892 2,2 v 4 c 0,1.108 -0.892,2 -2,2 h -11 c -1.108,0 -2,-0.892 -2,-2 v -4 c 0,-1.108 0.892,-2 2,-2 z"
       id="path956" />
    <rect
       fill="#ff4d62"
       ry="1"
       height="6"
       width="2"
       y="25"
       x="316"
       id="rect960" />
  </g>
  <g
     transform="translate(30,-16.999999)"
     id="22-22-Fill0">
    <rect
       fill="none"
       height="22"
       width="22"
       y="17"
       x="313"
       id="rect973" />
    <path
       fill="#ff4d62"
       d="m 333,26 v 4 h 0.5 a 1.5,2 0 0 0 1.5,-2 1.5,2 0 0 0 -1.5,-2 z"
       id="path975" />
    <path
       fill="#ff4d62"
       d="m 316.98,22 c -2.2035,0 -3.9766,1.773 -3.9766,3.9766 v 4.0469 c 0,2.2035 1.773,3.9766 3.9766,3.9766 h 11.047 c 2.2035,0 3.9766,-1.773 3.9766,-3.9766 V 25.9766 C 332.0036,23.7731 330.2306,22 328.027,22 Z m 0.0234,2 h 11 c 1.108,0 2,0.892 2,2 v 4 c 0,1.108 -0.892,2 -2,2 h -11 c -1.108,0 -2,-0.892 -2,-2 v -4 c 0,-1.108 0.892,-2 2,-2 z"
       id="path977" />
  </g>
  <g
     transform="matrix(0.49999985,0,0,0.49999985,168.5,78.49999)"
     id="16-16-Fill10">
    <g
       fill="#ff4d62"
       transform="translate(0,-24)"
       id="g1065">
      <path
         d="m 3.0000009,-34.999997 c -2.216,0 -4,1.784 -4,4 v 8.000004 c 0,2.216 1.784,4 4,4 H 21.000001 c 2.216,0 4,-1.784 4,-4 v -8.000004 c 0,-2.216 -1.784,-4 -4,-4 z m 0,2 H 21.000001 c 1.108,0 2,0.892 2,2 v 8.000004 c 0,1.108 -0.892,2 -2,2 H 3.0000009 c -1.108,0 -2,-0.892 -2,-2 v -8.000004 c 0,-1.108 0.892,-2 2,-2 z"
         id="path1059"
         sodipodi:nodetypes="ssssssssssssssssss" />
      <path
         d="m 27.000008,-29 v 4 h 0.5 c 0.898634,-0.29988 1.499577,-1.101658 1.5,-2.0013 -0.0016,-0.898687 -0.602318,-1.699138 -1.5,-1.9987 z"
         id="path1061"
         sodipodi:nodetypes="cccccc" />
      <rect
         ry="1"
         height="8"
         width="2"
         y="-31"
         x="3.0000014"
         id="rect1063" />
    </g>
    <rect
       fill="none"
       height="32"
       width="32"
       y="-67"
       x="-3"
       id="rect1067" />
  </g>
  <g
     fill="currentColor"
     transform="matrix(0.49999985,0,0,0.49999985,-94.719973,-123.25495)"
     class="ColorScheme-Text"
     id="16-16-Fill100">
    <rect
       opacity="0"
       ry="0"
       rx="0"
       height="32"
       width="32"
       y="336.51001"
       x="189.44"
       id="rect1071" />
    <rect
       stroke-width="0.809037"
       ry="0.99999911"
       rx="0"
       height="7.9999928"
       width="18.000006"
       y="348.51001"
       x="195.44"
       id="rect1075" />
  </g>
  <g
     fill="currentColor"
     transform="matrix(0.49999985,0,0,0.49999985,-74.719973,-123.25495)"
     class="ColorScheme-Text"
     id="16-16-Fill90">
    <rect
       opacity="0"
       ry="0"
       rx="0"
       height="32"
       width="32"
       y="336.51001"
       x="189.44"
       id="rect1079" />
    <rect
       stroke-width="0.800445"
       ry="1"
       rx="0"
       height="8"
       width="16.000006"
       y="348.51001"
       x="195.44"
       id="rect1081" />
  </g>
  <g
     fill="currentColor"
     transform="matrix(0.49999985,0,0,0.49999985,-57.719973,-123.25495)"
     class="ColorScheme-Text"
     id="16-16-Fill80">
    <rect
       opacity="0"
       ry="0"
       rx="0"
       height="32"
       width="32"
       y="336.51001"
       x="189.44"
       id="rect1085" />
    <rect
       stroke-width="0.789303"
       ry="1"
       rx="0"
       height="8"
       width="14.000004"
       y="348.51001"
       x="195.44"
       id="rect1087" />
  </g>
  <g
     fill="currentColor"
     transform="matrix(0.49999985,0,0,0.49999985,-37.719973,-123.25495)"
     class="ColorScheme-Text"
     id="16-16-Fill70">
    <rect
       opacity="0"
       ry="0"
       rx="0"
       height="32"
       width="32"
       y="336.51001"
       x="189.44"
       id="rect1091" />
    <rect
       stroke-width="0.775152"
       ry="1"
       rx="0"
       height="8"
       width="12.000004"
       y="348.51001"
       x="195.44"
       id="rect1093" />
  </g>
  <g
     fill="currentColor"
     transform="matrix(0.49999985,0,0,0.49999985,-19.719973,-123.25495)"
     class="ColorScheme-Text"
     id="16-16-Fill60">
    <rect
       opacity="0"
       ry="0"
       rx="0"
       height="32"
       width="32"
       y="336.51001"
       x="189.44"
       id="rect1097" />
    <rect
       stroke-width="0.75656"
       ry="1"
       rx="0"
       height="8"
       width="10.000003"
       y="348.51001"
       x="195.44"
       id="rect1099" />
  </g>
  <g
     fill="currentColor"
     transform="matrix(0.49999985,0,0,0.49999985,-1.7199728,-123.25495)"
     class="ColorScheme-Text"
     id="16-16-Fill50">
    <rect
       opacity="0"
       ry="0"
       rx="0"
       height="32"
       width="32"
       y="336.51001"
       x="189.44"
       id="rect1103" />
    <rect
       stroke-width="0.731024"
       ry="1"
       rx="0"
       height="8"
       width="8.0000029"
       y="348.51001"
       x="195.44"
       id="rect1105" />
  </g>
  <g
     fill="currentColor"
     transform="matrix(0.49999985,0,0,0.49999985,18.280027,-123.25495)"
     class="ColorScheme-Text"
     id="16-16-Fill40">
    <rect
       opacity="0"
       ry="0"
       rx="0"
       height="32"
       width="32"
       y="336.51001"
       x="189.44"
       id="rect1109" />
    <rect
       stroke-width="0.693686"
       ry="1"
       rx="0"
       height="8"
       width="6.0000019"
       y="348.51001"
       x="195.44"
       id="rect1111" />
  </g>
  <g
     fill="currentColor"
     transform="matrix(0.49999985,0,0,0.49999985,35.280027,-123.25495)"
     class="ColorScheme-Text"
     id="16-16-Fill30">
    <rect
       opacity="0"
       ry="0"
       rx="0"
       height="32"
       width="32"
       y="336.51001"
       x="189.44"
       id="rect1115" />
    <rect
       stroke-width="0.633512"
       ry="1"
       rx="0"
       height="8"
       width="4.0000014"
       y="348.51001"
       x="195.44"
       id="rect1117" />
  </g>
  <g
     fill="currentColor"
     transform="matrix(0.49999985,0,0,0.49999985,53.280027,-123.25495)"
     class="ColorScheme-Text"
     id="16-16-Fill20">
    <rect
       opacity="0"
       ry="0"
       rx="0"
       height="32"
       width="32"
       y="336.51001"
       x="189.44"
       id="rect1121" />
    <rect
       stroke-width="0.517687"
       ry="1"
       rx="0"
       height="8"
       width="2.0000007"
       y="348.51001"
       x="195.44"
       id="rect1123" />
  </g>
  <g
     transform="matrix(0.49999985,0,0,0.49999985,-51.769999,-135.75495)"
     id="16-16-AcAdapter">
    <g
       transform="translate(-228,47)"
       id="g1129">
      <rect
         opacity="0"
         ry="0"
         rx="0"
         height="32"
         width="32"
         y="314.51001"
         x="211.53999"
         id="rect1127" />
    </g>
    <g
       id="g1134">
      <path
         fill="#4caf50"
         d="m -3.4643,369.51 c -0.554,0 -1,0.446 -1,1 v 3 h -2 c 3.908e-4,3.3259 1.6723,6.1922 4,6.8574 v 4.1426 c 0,0.554 0.446,1 1,1 0.554,0 1,-0.446 1,-1 v -4.1426 c 2.3277,-0.66518 3.9996,-3.5315 4,-6.8574 h -2 v -3 c 0,-0.554 -0.446,-1 -1,-1 -0.554,0 -1,0.446 -1,1 v 3 h -2 v -3 c 0,-0.554 -0.446,-1 -1,-1 z"
         id="path1131" />
    </g>
  </g>
  <g
     fill="currentColor"
     transform="matrix(0.49999985,0,0,0.49999985,-122.76999,-134.75494)"
     class="ColorScheme-Text"
     id="16-16-battery-ups">
    <g
       transform="translate(1,27)"
       id="g1142">
      <path
         opacity="0.5"
         d="m -139,-37.00001 c -2.216,0 -4,1.784 -4,4 v 8.000004 c 0,2.216 1.784,4 4,4 h 18 c 2.216,0 4,-1.784 4,-4 v -8.000004 c 0,-2.216 -1.784,-4 -4,-4 z m 0,1 h 11 L -135,-28 h 5 l -2.5,5.999994 h -6.5 c -1.662,0 -3,-1.338 -3,-3 v -8.000004 c 0,-1.662 1.338,-3 3,-3 z m 11.5,0 h 6.5 c 1.662,0 3,1.338 3,3 v 8.000004 c 0,1.662 -1.338,3 -3,3 h -11 L -125,-30 h -5 z M -114.99999,-31 v 4 c 1.10457,0 2,-0.895431 2,-2 0,-1.104569 -0.89543,-2 -2,-2 z"
         transform="translate(213.54,377.51)"
         id="path1138"
         sodipodi:nodetypes="ssssssssssccccsssscssssccccccsc" />
      <path
         d="m -139,-35.000009 c -1.108,0 -2,0.892 -2,2 v 8.000003 c 0,1.108 0.892,2 2,2 h 5.8828 L -131.6172,-27 H -135 c -0.89064,-3.51e-4 -1.3366,-1.077 -0.70703,-1.707 l 5.293,-6.293009 z m 12.117,0 -1.5,4.000009 h 3.3828 c 0.89064,3.51e-4 1.3366,1.077 0.70703,1.707 l -5.293,6.292994 h 8.5859 c 1.108,0 2,-0.892 2,-2 v -8.000003 c 0,-1.108 -0.892,-2 -2,-2 z"
         transform="translate(213.54,377.51)"
         id="path1140" />
    </g>
    <rect
       opacity="0"
       ry="0"
       rx="0"
       height="32"
       width="32"
       y="359.51001"
       x="69.536003"
       id="rect1144" />
  </g>
  <g
     transform="matrix(0.49999985,0,0,0.49999985,-101.26998,-169.24993)"
     id="16-16-Unavailable">
    <path
       fill="none"
       d="m 118.54,428.5 h 32 v 32 h -32 z"
       id="path1148" />
    <g
       id="g1154">
      <rect
         fill="#f44336"
         ry="6"
         rx="6"
         height="12"
         width="12"
         y="446.5"
         x="138.54001"
         id="rect1150" />
      <path
         d="m 147.36002,450.38 -0.70699,-0.707 -2.1213,2.1213 -2.1213,-2.1213 -0.70711,0.70711 2.1214,2.1212 -2.1214,2.1214 0.70711,0.70711 2.1213,-2.1216 2.1213,2.1216 0.70711,-0.70711 -2.1214,-2.1214 z"
         id="path1152"
         style="fill:#ffffff" />
    </g>
  </g>
  <g
     transform="matrix(0.49999985,0,0,0.49999985,-18.499996,78.49999)"
     id="16-16-Battery">
    <g
       fill="currentColor"
       class="ColorScheme-Text"
       transform="translate(0,-24)"
       id="g1162">
      <path
         d="m 3,-34.999998 c -2.216,0 -4,1.784 -4,4 v 8.000004 c 0,2.216 1.784,4 4,4 h 18 c 2.216,0 4,-1.784 4,-4 v -8.000004 c 0,-2.216 -1.784,-4 -4,-4 z m 0,2 h 18 c 1.108,0 2,0.892 2,2 v 8.000004 c 0,1.108 -0.892,2 -2,2 H 3 c -1.108,0 -2,-0.892 -2,-2 v -8.000004 c 0,-1.108 0.892,-2 2,-2 z"
         id="path1158"
         sodipodi:nodetypes="ssssssssssssssssss" />
      <path
         d="m 27,-29 v 4 h 0.5 c 0.898634,-0.29988 1.499577,-1.101658 1.5,-2.0013 -0.0016,-0.898687 -0.602318,-1.699138 -1.5,-1.9987 z"
         id="path1160"
         sodipodi:nodetypes="cccccc" />
    </g>
    <rect
       fill="none"
       height="32"
       width="32"
       y="-67"
       x="-3"
       id="rect1164" />
  </g>
  <g
     transform="matrix(0.49999985,0,0,0.49999985,189.50495,78.499982)"
     id="16-16-Fill0">
    <g
       fill="#ff4d62"
       transform="translate(0,-24)"
       id="g1172">
      <path
         d="m 2.9901009,-34.999982 c -2.216,0 -4,1.784 -4,4 v 8.000005 c 0,2.216 1.784,4 4,4 H 20.990101 c 2.216,0 4,-1.784 4,-4 v -8.000005 c 0,-2.216 -1.784,-4 -4,-4 z m 0,2 H 20.990101 c 1.108,0 2,0.892 2,2 v 8.000005 c 0,1.108 -0.892,2 -2,2 H 2.9901009 c -1.108,0 -2,-0.892 -2,-2 v -8.000005 c 0,-1.108 0.892,-2 2,-2 z"
         id="path1168"
         sodipodi:nodetypes="ssssssssssssssssss" />
      <path
         d="m 26.990108,-29 v 4 h 0.5 c 0.898634,-0.29988 1.499577,-1.101658 1.5,-2.0013 -0.0016,-0.898687 -0.602318,-1.699138 -1.5,-1.9987 z"
         id="path1170"
         sodipodi:nodetypes="cccccc" />
    </g>
    <rect
       fill="none"
       height="32"
       width="32"
       y="-67"
       x="-3"
       id="rect1174" />
  </g>
</svg>
