<?xml version="1.0" encoding="UTF-8" standalone="no"?>
<svg
   width="32"
   height="32"
   version="1.1"
   viewBox="0 0 32 32"
   id="svg3"
   sodipodi:docname="device.svg"
   inkscape:version="1.3 (0e150ed6c4, 2023-07-21)"
   xmlns:inkscape="http://www.inkscape.org/namespaces/inkscape"
   xmlns:sodipodi="http://sodipodi.sourceforge.net/DTD/sodipodi-0.dtd"
   xmlns="http://www.w3.org/2000/svg"
   xmlns:svg="http://www.w3.org/2000/svg">
  <sodipodi:namedview
     id="namedview3"
     pagecolor="#ffffff"
     bordercolor="#666666"
     borderopacity="1.0"
     inkscape:showpageshadow="2"
     inkscape:pageopacity="0.0"
     inkscape:pagecheckerboard="0"
     inkscape:deskcolor="#d1d1d1"
     inkscape:zoom="11.357903"
     inkscape:cx="29.494882"
     inkscape:cy="17.344752"
     inkscape:window-width="1920"
     inkscape:window-height="1009"
     inkscape:window-x="0"
     inkscape:window-y="35"
     inkscape:window-maximized="1"
     inkscape:current-layer="svg3" />
  <defs
     id="defs1">
    <style
       id="current-color-scheme"
       type="text/css">.ColorScheme-Text { color:#363636; }</style>
  </defs>
  <g
     id="16-16-device-notifier"
     class="ColorScheme-Text"
     transform="translate(-321.5,-529.36)"
     fill="currentColor">
    <rect
       x="393.5"
       y="537.35999"
       width="16"
       height="16"
       ry="0"
       opacity="0"
       id="rect3226" />
    <g
       transform="translate(-19.5)"
       id="g3234">
      <path
         transform="translate(321,529.36)"
         d="m 97,8 c -0.55399,0 -1,0.44601 -1,1 v 3 c -1.108,0 -2,0.89201 -2,2 v 4 c 0,3.324 2.676,6 6,6 3.324,0 6,-2.676 6,-6 v -4 c 0,-1.108 -0.89201,-2 -2,-2 V 9 c 0,-0.55399 -0.44601,-1 -1,-1 z m 1,1 c 0.55399,0 1,0.44601 1,1 v 1 c 0,0.55399 -0.44601,1 -1,1 -0.55399,0 -1,-0.44601 -1,-1 v -1 c 0,-0.55399 0.44601,-1 1,-1 z m 4,0 c 0.55399,0 1,0.44601 1,1 v 1 c 0,0.55399 -0.44601,1 -1,1 -0.55399,0 -1,-0.44601 -1,-1 v -1 c 0,-0.55399 0.44601,-1 1,-1 z m -6,4 h 8 c 0.55399,0 1,0.44601 1,1 v 4 a 5,5 0 0 1 -5,5 5,5 0 0 1 -5,-5 v -4 c 0,-0.55399 0.44601,-1 1,-1 z"
         id="path3228" />
      <circle
         cx="421"
         cy="549.35999"
         r="2"
         opacity="0.25"
         id="circle3230" />
      <circle
         cx="421"
         cy="549.35999"
         r="1"
         id="circle3232" />
    </g>
  </g>
  <g
     fill="currentColor"
     class="ColorScheme-Text"
     transform="translate(-288.16232,-528.72159)"
     id="22-22-device-notifier">
    <rect
       id="rect7"
       stroke-width="1.76"
       opacity="0"
       height="22"
       width="22"
       y="534.35999"
       x="326.01999" />
    <path
       id="path15"
       d="m 332,537.36 c -1.5802,0 -2.8538,1.2141 -2.9766,2.7617 l -1.9785,9.7969 c -0.0215,0.14534 -0.0449,0.28993 -0.0449,0.44141 0,1.662 1.338,3 3,3 h 14 c 1.662,0 3,-1.338 3,-3 0,-0.15148 -0.0234,-0.29607 -0.0449,-0.44141 l -1.9785,-9.7969 C 344.85378,538.5741 343.5803,537.36 342,537.36 Z m 0,2 h 10 c 0.46959,0 0.84456,0.3267 0.95312,0.76172 l 1.502,7.2832 c -0.14957,-0.0227 -0.29895,-0.0449 -0.45508,-0.0449 h -14 c -0.15613,0 -0.30551,0.0222 -0.45508,0.0449 l 1.502,-7.2832 c 0.10857,-0.43502 0.48354,-0.76172 0.95312,-0.76172 z m 10.951,9 c 0.0163,-2e-4 0.0325,-2e-4 0.0488,0 1.1046,0 2,0.89543 2,2 0,1.10457 -0.89543,2 -2,2 -0.71397,-5.7e-4 -1.3735,-0.38169 -1.7305,-1 h -11.27 c -0.55398,0 -1,-0.44602 -1,-1 0,-0.55399 0.44602,-1 1,-1 h 11.27 c 0.34812,-0.60347 0.98518,-0.98231 1.6816,-1 z" />
    <circle
       id="circle17"
       opacity="0.35"
       r="1"
       cy="550.35999"
       cx="343" />
  </g>
  <g
     id="device-notifier"
     transform="translate(-0.02000793,-33.000023)">
    <rect
       id="rect599"
       stroke-width="2.56"
       opacity="0"
       height="32"
       width="32"
       y="33.000023"
       x="0.020007931"
       style="color:#363636;fill:#363636" />
    <path
       id="path601"
       class="ColorScheme-Text"
       d="m 9.2739142,38.000023 c -2.3235782,0 -4.0307342,1.744532 -4.4707031,4 L 2.1098517,55.568382 c 0.00126,0.0052 0.00256,0.01042 0.00391,0.01563 -0.060805,0.295912 -0.09375,0.601586 -0.09375,0.916016 0,0.154731 0.00801,0.308167 0.023437,0.458984 v 0.002 c 0.015429,0.150154 0.038395,0.297844 0.068359,0.44336 2.539e-4,0.0013 -2.55e-4,0.0027 0,0.0039 0.3584871,1.760792 1.7392073,3.141512 3.5,3.5 0.00124,2.58e-4 0.00266,-2.56e-4 0.00391,0 0.1455251,0.0295 0.2930101,0.05318 0.4433593,0.06836 h 0.00195 c 0.1510221,0.01514 0.3038312,0.02344 0.4589843,0.02344 H 25.520008 c 0.31078,0 0.614761,-0.03111 0.908203,-0.0918 1.760792,-0.358488 3.141512,-1.739208 3.5,-3.5 2.55e-4,-0.0013 -2.54e-4,-0.0027 0,-0.0039 0.02997,-0.145516 0.05293,-0.293206 0.06836,-0.44336 v -0.002 c 0.01543,-0.150774 0.02344,-0.304253 0.02344,-0.458984 0,-0.306869 -0.03186,-0.60523 -0.08984,-0.894531 0.0015,-0.01234 0.0028,-0.02472 0.0039,-0.03711 L 27.238758,42.000023 c -0.431171,-2.200675 -2.147125,-4 -4.470703,-4 z m 0,2 H 22.768055 c 1.213857,0 2.201444,0.855932 2.43164,2 l 2.054688,10.345703 C 26.72082,52.123742 26.135797,52.000023 25.520008,52.000023 H 6.5200079 c -0.61514,0 -1.1993112,0.124163 -1.7324218,0.345703 L 6.8403204,42.000023 c 0.2301966,-1.144068 1.2197374,-2 2.4335938,-2 z m -2.7539063,14 H 25.520008 c 1.20403,0 2.202602,0.842504 2.443359,1.972656 0.01193,0.05601 0.01907,0.113385 0.02734,0.169922 0.0048,0.03382 0.01216,0.06731 0.01563,0.101563 0.0085,0.08425 0.01367,0.169297 0.01367,0.255859 0,0.173125 -0.01759,0.342825 -0.05078,0.505859 -2.56e-4,0.0013 2.57e-4,0.0027 0,0.0039 -0.200102,0.975166 -0.964287,1.739351 -1.939453,1.939453 -0.0013,2.57e-4 -0.0027,-2.56e-4 -0.0039,0 -0.163043,0.0332 -0.332734,0.05078 -0.505859,0.05078 H 6.5200079 c -0.1731241,0 -0.3428229,-0.01759 -0.5058593,-0.05078 -0.00126,-2.56e-4 -0.00265,2.57e-4 -0.00391,0 -0.975166,-0.200102 -1.7393517,-0.964287 -1.9394531,-1.939453 -2.496e-4,-0.0013 2.48e-4,-0.0027 0,-0.0039 -0.033189,-0.163042 -0.050781,-0.332734 -0.050781,-0.505859 0,-0.0868 0.00478,-0.171276 0.013672,-0.255859 0.00346,-0.03425 0.010809,-0.06774 0.015625,-0.101563 0.00827,-0.05654 0.01543,-0.113914 0.027344,-0.169922 v -0.002 c 0.2414661,-1.129161 1.2399963,-1.970703 2.4433593,-1.970703 z"
       fill="currentColor" />
    <circle
       id="circle609"
       opacity="0.35"
       r="1.5"
       cy="56.5"
       cx="25.520008"
       class="ColorScheme-Text"
       fill="currentColor" />
  </g>
</svg>
