<?xml version="1.0" encoding="UTF-8" standalone="no"?>
<svg
   version="1.1"
   viewBox="0 0 54 32"
   id="svg20"
   sodipodi:docname="start.svg"
   inkscape:version="1.2.1 (9c6d41e410, 2022-07-14, custom)"
   xmlns:inkscape="http://www.inkscape.org/namespaces/inkscape"
   xmlns:sodipodi="http://sodipodi.sourceforge.net/DTD/sodipodi-0.dtd"
   xmlns="http://www.w3.org/2000/svg"
   xmlns:svg="http://www.w3.org/2000/svg">
  <sodipodi:namedview
     id="namedview22"
     pagecolor="#ffffff"
     bordercolor="#666666"
     borderopacity="1.0"
     inkscape:pageshadow="2"
     inkscape:pageopacity="0.0"
     inkscape:pagecheckerboard="0"
     showgrid="true"
     inkscape:zoom="5.7231455"
     inkscape:cx="1.7472909"
     inkscape:cy="-2.3588427"
     inkscape:window-width="1920"
     inkscape:window-height="1004"
     inkscape:window-x="0"
     inkscape:window-y="0"
     inkscape:window-maximized="1"
     inkscape:current-layer="svg20"
     inkscape:showpageshadow="2"
     inkscape:deskcolor="#d1d1d1">
    <inkscape:grid
       type="xygrid"
       id="grid830" />
  </sodipodi:namedview>
  <defs
     id="defs3">
    <style
       id="current-color-scheme"
       type="text/css">.ColorScheme-Text { color:#363636; }</style>
  </defs>
  <g
     id="16-16-start-here-kde"
     class="ColorScheme-Text"
     transform="translate(24,39)"
     fill="currentColor">
    <rect
       x="-40"
       y="-23"
       width="16"
       height="16"
       ry=".45344"
       opacity="0"
       id="rect5" />
    <path
       d="m-29.939-19.754c0.4829-0.60124 0.81032-1.4181 0.71998-2.246-0.69552 0.02917-1.5621 0.4831-2.0641 1.0668-0.44346 0.51791-0.83742 1.3644-0.73539 2.1624 0.78053 0.05826 1.5799-0.39496 2.0795-0.98313zm1.7598 5.2017c-0.01668-1.7705 1.4487-2.6302 1.5151-2.6712-0.82904-1.21-2.1145-1.374-2.5678-1.3889-1.0803-0.11007-2.1261 0.64909-2.6772 0.64909-0.56087-7.8e-5 -1.4079-0.63596-2.3201-0.61787-1.1758 0.01758-2.2769 0.69842-2.8797 1.7527-1.2409 2.1549-0.31584 5.3199 0.87605 7.0575 0.59706 0.85536 1.2926 1.8074 2.2048 1.7698 0.89221-0.033911 1.2248-0.56649 2.3032-0.56649 1.0671 0 1.3797 0.56649 2.3106 0.54826 0.95809-0.015711 1.5606-0.8569 2.137-1.7158 0.68644-0.97981 0.96361-1.9404 0.97467-1.9915-0.02136-0.0079-1.8571-0.70607-1.8767-2.8257z"
       id="path7" />
  </g>
  <g
     id="22-22-start-here-kde"
     class="ColorScheme-Text"
     transform="matrix(1.375,0,0,1.375,55,41.625)"
     fill="currentColor">
    <rect
       x="-40"
       y="-23"
       width="16"
       height="16"
       ry=".45344"
       opacity="0"
       id="rect10" />
    <path
       d="m -29.844047,-19.972723 c 0.505154,-0.628898 0.847643,-1.48337 0.753138,-2.349329 -0.727563,0.03051 -1.634094,0.505329 -2.159158,1.115919 -0.463888,0.541738 -0.875998,1.427242 -0.76926,2.261864 0.816481,0.06094 1.652721,-0.413135 2.175268,-1.028365 z m 1.840872,5.441035 c -0.01744,-1.851978 1.515415,-2.751162 1.584884,-2.794074 -0.867224,-1.265654 -2.211891,-1.437184 -2.685984,-1.45279 -1.130084,-0.115135 -2.223973,0.678962 -2.800511,0.678962 -0.58671,-8.1e-5 -1.472748,-0.665219 -2.426977,-0.646304 -1.229986,0.0184 -2.381794,0.73056 -3.012324,1.833351 -1.298062,2.254062 -0.330381,5.564619 0.916409,7.382239 0.624564,0.8947168 1.352053,1.8906136 2.306406,1.8512242 0.933312,-0.035465 1.281198,-0.5925557 2.409231,-0.5925557 1.116229,0 1.443173,0.5925557 2.417034,0.5734899 1.002217,-0.016431 1.632583,-0.8963274 2.235426,-1.7947184 0.718062,-1.02488 1.008006,-2.029675 1.019571,-2.08316 -0.02234,-0.0081 -1.942687,-0.738551 -1.963202,-2.955664 z"
       id="path12" />
  </g>
  <g
     id="start-here-kde"
     class="ColorScheme-Text"
     transform="matrix(2,0,0,2,102,46)"
     fill="currentColor">
    <rect
       x="-40"
       y="-23"
       width="16"
       height="16"
       ry=".45344"
       opacity="0"
       id="rect15" />
    <path
       d="m -29.938205,-19.754013 c 0.482923,-0.601238 0.810361,-1.418076 0.720019,-2.245987 -0.695556,0.02917 -1.562225,0.483103 -2.064214,1.066841 -0.443491,0.517913 -0.837458,1.364494 -0.735419,2.162368 0.780566,0.05825 1.580044,-0.394953 2.079614,-0.983132 z m 1.759889,5.201648 c -0.01667,-1.770495 1.448817,-2.630225 1.515129,-2.671206 -0.829083,-1.209998 -2.114614,-1.373912 -2.567855,-1.388931 -1.08037,-0.110086 -2.126198,0.649093 -2.677317,0.649093 -0.560893,-7.8e-5 -1.407961,-0.635958 -2.32017,-0.617871 -1.175893,0.01758 -2.277023,0.698422 -2.879817,1.752802 -1.241009,2.15486 -0.315856,5.319885 0.876101,7.057543 0.597091,0.855364 1.292647,1.8074041 2.204855,1.7698586 0.892252,-0.033912 1.224883,-0.566492 2.30337,-0.566492 1.067134,0 1.379705,0.566492 2.310753,0.5482665 0.958131,-0.01571 1.560696,-0.8569035 2.137143,-1.7157674 0.68648,-0.9798107 0.963668,-1.9404037 0.974729,-1.9915677 -0.02136,-0.008 -1.857131,-0.706072 -1.876857,-2.825716 z"
       id="path17" />
  </g>
</svg>
