<?xml version="1.0" encoding="UTF-8" standalone="no"?>
<svg
   version="1.1"
   viewBox="0 0 54 32"
   id="svg20"
   sodipodi:docname="start.svg"
   inkscape:version="1.1.2 (0a00cf5339, 2022-02-04)"
   xmlns:inkscape="http://www.inkscape.org/namespaces/inkscape"
   xmlns:sodipodi="http://sodipodi.sourceforge.net/DTD/sodipodi-0.dtd"
   xmlns="http://www.w3.org/2000/svg"
   xmlns:svg="http://www.w3.org/2000/svg">
  <sodipodi:namedview
     id="namedview22"
     pagecolor="#ffffff"
     bordercolor="#666666"
     borderopacity="1.0"
     inkscape:pageshadow="2"
     inkscape:pageopacity="0.0"
     inkscape:pagecheckerboard="0"
     showgrid="true"
     inkscape:zoom="16.1875"
     inkscape:cx="17.915058"
     inkscape:cy="12.23166"
     inkscape:window-width="1440"
     inkscape:window-height="706"
     inkscape:window-x="0"
     inkscape:window-y="28"
     inkscape:window-maximized="1"
     inkscape:current-layer="svg20">
    <inkscape:grid
       type="xygrid"
       id="grid830" />
  </sodipodi:namedview>
  <defs
     id="defs3">
    <style
       id="current-color-scheme"
       type="text/css">.ColorScheme-Text { color:#363636; }</style>
  </defs>
  <g
     id="16-16-start-here-kde"
     class="ColorScheme-Text"
     transform="translate(24,39)"
     fill="currentColor">
    <rect
       x="-40"
       y="-23"
       width="16"
       height="16"
       ry=".45344"
       opacity="0"
       id="rect5" />
    <path
       d="m-29.939-19.754c0.4829-0.60124 0.81032-1.4181 0.71998-2.246-0.69552 0.02917-1.5621 0.4831-2.0641 1.0668-0.44346 0.51791-0.83742 1.3644-0.73539 2.1624 0.78053 0.05826 1.5799-0.39496 2.0795-0.98313zm1.7598 5.2017c-0.01668-1.7705 1.4487-2.6302 1.5151-2.6712-0.82904-1.21-2.1145-1.374-2.5678-1.3889-1.0803-0.11007-2.1261 0.64909-2.6772 0.64909-0.56087-7.8e-5 -1.4079-0.63596-2.3201-0.61787-1.1758 0.01758-2.2769 0.69842-2.8797 1.7527-1.2409 2.1549-0.31584 5.3199 0.87605 7.0575 0.59706 0.85536 1.2926 1.8074 2.2048 1.7698 0.89221-0.033911 1.2248-0.56649 2.3032-0.56649 1.0671 0 1.3797 0.56649 2.3106 0.54826 0.95809-0.015711 1.5606-0.8569 2.137-1.7158 0.68644-0.97981 0.96361-1.9404 0.97467-1.9915-0.02136-0.0079-1.8571-0.70607-1.8767-2.8257z"
       id="path7" />
  </g>
  <g
     id="22-22-start-here-kde"
     class="ColorScheme-Text"
     transform="matrix(1.375,0,0,1.375,55,41.625)"
     fill="currentColor">
    <rect
       x="-40"
       y="-23"
       width="16"
       height="16"
       ry=".45344"
       opacity="0"
       id="rect10" />
    <path
       d="m -30.072741,-19.445302 c 0.451576,-0.562196 0.757739,-1.32604 0.673258,-2.100153 -0.650396,0.02728 -1.460777,0.451733 -1.930152,0.997561 -0.414686,0.48428 -0.783086,1.275865 -0.68767,2.021966 0.729883,0.05448 1.477429,-0.369317 1.944553,-0.919295 z m 1.645624,4.863944 c -0.01559,-1.655553 1.354685,-2.459366 1.416787,-2.497728 -0.775244,-1.131415 -1.977292,-1.284752 -2.401101,-1.298702 -1.010224,-0.102924 -1.988093,0.606949 -2.503481,0.606949 -0.524482,-7.3e-5 -1.316545,-0.594664 -2.169565,-0.577755 -1.099531,0.01644 -2.129175,0.653074 -2.692829,1.638901 -1.160387,2.01499 -0.29534,4.97442 0.819212,6.599258 0.558321,0.7998206 1.208651,1.6900898 2.061783,1.6548782 0.834321,-0.031704 1.14531,-0.5297076 2.1537,-0.5297076 0.997839,0 1.290106,0.5297076 2.160677,0.512664 0.895919,-0.014688 1.459428,-0.8012604 1.99833,-1.6043656 0.641903,-0.916178 0.901095,-1.814402 0.911433,-1.862214 -0.01997,-0.0073 -1.736641,-0.660219 -1.754979,-2.642178 z"
       id="path12"
       style="stroke-width:1.12504" />
  </g>
  <g
     id="start-here-kde"
     class="ColorScheme-Text"
     transform="matrix(2,0,0,2,102,46)"
     fill="currentColor">
    <rect
       x="-40"
       y="-23"
       width="16"
       height="16"
       ry=".45344"
       opacity="0"
       id="rect15" />
    <path
       d="m -30.232681,-19.074868 c 0.413934,-0.515347 0.694595,-1.215494 0.617159,-1.925132 -0.59619,0.02501 -1.339049,0.414088 -1.769326,0.914435 -0.380135,0.443925 -0.717821,1.169566 -0.630359,1.853458 0.669056,0.04993 1.354323,-0.338531 1.782526,-0.842685 z m 1.508476,4.458555 c -0.01429,-1.517567 1.241844,-2.254478 1.298683,-2.289605 -0.710643,-1.037141 -1.812527,-1.177639 -2.201019,-1.190512 -0.926032,-0.09436 -1.822455,0.556365 -2.294843,0.556365 -0.480766,-6.7e-5 -1.206824,-0.545107 -1.988718,-0.529604 -1.007908,0.01507 -1.951734,0.598648 -2.468414,1.502402 -1.063723,1.847023 -0.270734,4.559902 0.750943,6.049323 0.511793,0.7331692 1.107983,1.5492036 1.889876,1.5170218 0.764788,-0.029068 1.0499,-0.4855647 1.974318,-0.4855647 0.914686,0 1.182604,0.4855647 1.980645,0.4699428 0.821255,-0.013466 1.337739,-0.7344888 1.831837,-1.4706579 0.588411,-0.839838 0.826001,-1.663203 0.835482,-1.707058 -0.01831,-0.0068 -1.591826,-0.605205 -1.608735,-2.422042 z"
       id="path17"
       style="stroke-width:1.09093" />
  </g>
</svg>
